
<svg version="1.1" viewBox="0 0 2048 1385" width="640" height="433" xmlns="http://www.w3.org/2000/svg" preserveAspectRatio="xMidYMid meet">
<path transform="translate(1041)" d="m0 0h124l10 3 1 23 1 534v335l-7 8-4 3h-19l-458-9-11-7-33-22-21-13-26-15-33-17-25-11-28-10-26-7-18-3-8-1h-28l-20 4-24 8-16 8-15 8-22 14-30 23-11 9-10 9-8 7-12 11-13 12-1 1h-37l-99-1-1-1v-170l2-157 1-216 2-150 1-150 1-48 41-1 120-1 146-2 250-3 199-1 65-2z"/>
<path transform="translate(1710,338)" d="m0 0h17l4 5 15 27 13 23 15 27 12 21 14 25 13 23 28 50 12 21 10 18 13 23 14 25 13 23 28 50 12 21 14 25 13 23 14 25 26 46 15 27 9 16 2 27 9 176 3 44v20l-16 2-75 6h-14l-8-45-7-34-9-36-12-36-8-20-10-21-12-19-9-11-11-12-7-7-17-13-21-12-19-8-26-8-25-5-27-3-17-1h-27l-28 2-29 4-24 5-31 9-24 10-20 10-22 14-11 9-12 11-9 11-11 15-9 15-12 23-11 27-11 33-8 30-6 26-14 16-8 5-8 3-6 1h-157l-450-1h-51l-2 31-3 20-6 24-8 22-7 16-11 19-12 17-9 11-14 15-13 12-16 12-20 12-15 8-25 10-21 6-31 6h-46l-34-7-26-8-25-11-19-11-14-10-11-9-13-12-10-10-9-11-11-15-9-15-9-17-8-20-6-19-5-25-2-17v-36l2-16h-231v-80l1-1 259-2 9-15 10-13 11-13 20-20 17-13 19-12 21-11 20-8 21-6 20-4 17-2h35l24 3 25 6 24 8 25 12 16 10 16 12 14 12 15 15 9 11 13 18 10 18 8 16 2 7 4-1h187l426 1-2-161-2-130-2-169-1-55-2-179v-24l1-1 306-5 70-1zm-319 128v12l9 121 2 4 37 19 19 10 27 14 19 10 29 15 73 38 50 26 19 10 27 14 19 10 33 17 19 10 27 14 50 26 19 10 35 18 5 3 5 1 5-3 2-3-1-6-10-20-12-22-26-48-9-16-14-26-12-22-14-26-12-22-26-48-12-22-13-24-14-26-24-44-1-1-49-4-269-19z"/>
<path transform="translate(1653,907)" d="m0 0h42l26 4 20 5 18 6 18 8 19 10 12 8 13 10 13 11 15 15 9 11 11 15 11 18 11 23 7 19 6 23 3 19 1 9v41l-3 22-6 24-7 21-10 22-12 20-12 16-12 14-16 16-11 9-17 12-23 13-18 8-27 9-18 4-23 3h-40l-21-3-22-5-21-7-18-8-19-10-12-8-12-9-14-12-15-15-9-11-11-15-12-20-11-23-9-27-5-24-2-17-1-21 2-30 5-25 5-18 10-25 11-21 12-18 11-14 15-16 7-7 11-9 15-11 15-9 21-11 24-9 23-6z" fill="#fff"/>
<path transform="translate(450,963)" d="m0 0h28l24 4 21 6 20 8 19 10 14 10 10 8 12 11 11 12 12 17 9 16 7 15 8 24 4 20 1 8v38l-4 23-8 26-12 25-12 18-8 10-11 12-8 8-13 10-14 9-23 12-22 8-24 5-16 2h-26l-25-4-19-5-21-8-19-10-17-12-10-9-8-7-12-13-10-14-8-13-8-15-8-21-5-19-3-23v-29l3-19 4-17 10-28 11-21 10-14 9-11 9-10 8-7 14-11 17-11 23-11 21-7 24-5z" fill="#fff"/>
<path transform="translate(1653,907)" d="m0 0h42l26 4 20 5 18 6 18 8 19 10 12 8 13 10 13 11 15 15 9 11 11 15 11 18 11 23 7 19 6 23 3 19 1 9v41l-3 22-6 24-7 21-10 22-12 20-12 16-12 14-16 16-11 9-17 12-23 13-18 8-27 9-18 4-23 3h-40l-21-3-22-5-21-7-18-8-19-10-12-8-12-9-14-12-15-15-9-11-11-15-12-20-11-23-9-27-5-24-2-17-1-21 2-30 5-25 5-18 10-25 11-21 12-18 11-14 15-16 7-7 11-9 15-11 15-9 21-11 24-9 23-6zm4 47-21 3-25 7-21 9-17 10-14 10-14 12-13 13-11 14-9 14-8 16-6 14-6 19-5 27-1 13v13l3 26 4 18 6 18 9 19 10 17 9 12 11 13 9 9 11 9 14 10 17 10 16 7 18 6 23 5 20 2h12l22-2 24-5 15-5 16-7 19-10 14-10 13-11 14-14 11-14 9-14 11-21 7-19 6-25 2-14v-30l-2-17-4-19-7-21-10-21-12-19-11-13-12-13-10-9-17-12-17-10-21-9-20-6-19-4-8-1z"/>
</svg>
